<mxfile host="app.diagrams.net" modified="2022-04-17T13:43:31.708Z" agent="5.0 (Macintosh; Intel Mac OS X 10_15_7) AppleWebKit/537.36 (KHTML, like Gecko) Chrome/100.0.4896.88 Safari/537.36" etag="sqYkn8ljD3JJoDImkVpU" version="17.4.5" type="github">
  <diagram id="b_CG-OrKG5c0VqqqdrGs" name="第 1 页">
    <mxGraphModel dx="1039" dy="797" grid="1" gridSize="10" guides="1" tooltips="1" connect="1" arrows="1" fold="1" page="1" pageScale="1" pageWidth="1169" pageHeight="1654" math="0" shadow="0">
      <root>
        <mxCell id="0" />
        <mxCell id="1" parent="0" />
        <mxCell id="NCXxPQ6cSu1F1KOrD2qf-3" value="" style="whiteSpace=wrap;html=1;aspect=fixed;strokeWidth=4;gradientColor=#ffffff;strokeColor=#000000;" parent="1" vertex="1">
          <mxGeometry x="256" y="50" width="580" height="580" as="geometry" />
        </mxCell>
        <mxCell id="NCXxPQ6cSu1F1KOrD2qf-10" value="" style="group" parent="1" vertex="1" connectable="0">
          <mxGeometry x="330" y="90" width="450" height="450" as="geometry" />
        </mxCell>
        <mxCell id="NCXxPQ6cSu1F1KOrD2qf-4" value="" style="whiteSpace=wrap;html=1;aspect=fixed;strokeWidth=4;fillColor=#ffcd28;gradientColor=#ffa500;strokeColor=#000000;" parent="NCXxPQ6cSu1F1KOrD2qf-10" vertex="1">
          <mxGeometry width="320" height="320" as="geometry" />
        </mxCell>
        <mxCell id="NCXxPQ6cSu1F1KOrD2qf-8" value="&lt;font style=&quot;font-size: 30px&quot;&gt;container-1&lt;/font&gt;" style="text;html=1;strokeColor=none;fillColor=none;align=center;verticalAlign=middle;whiteSpace=wrap;rounded=0;" parent="NCXxPQ6cSu1F1KOrD2qf-10" vertex="1">
          <mxGeometry x="80" y="30" width="170" height="30" as="geometry" />
        </mxCell>
        <mxCell id="NCXxPQ6cSu1F1KOrD2qf-11" value="" style="group" parent="NCXxPQ6cSu1F1KOrD2qf-10" vertex="1" connectable="0">
          <mxGeometry x="90" y="120" width="320" height="320" as="geometry" />
        </mxCell>
        <mxCell id="NCXxPQ6cSu1F1KOrD2qf-6" value="&lt;span style=&quot;color: rgb(51 , 51 , 51) ; font-family: &amp;#34;helvetica neue&amp;#34; , &amp;#34;helvetica&amp;#34; , &amp;#34;arial&amp;#34; , &amp;#34;hiragino sans gb&amp;#34; , &amp;#34;hiragino sans gb w3&amp;#34; , &amp;#34;microsoft yahei ui&amp;#34; , &amp;#34;microsoft yahei&amp;#34; , sans-serif&quot;&gt;&lt;font style=&quot;font-size: 23px&quot;&gt;&lt;b&gt;Share a network&lt;/b&gt;&lt;/font&gt;&lt;/span&gt;" style="whiteSpace=wrap;html=1;aspect=fixed;strokeWidth=4;fillColor=#ffcd28;gradientColor=#ffa500;strokeColor=#000000;" parent="NCXxPQ6cSu1F1KOrD2qf-11" vertex="1">
          <mxGeometry width="320" height="320" as="geometry" />
        </mxCell>
        <mxCell id="NCXxPQ6cSu1F1KOrD2qf-7" value="&lt;font style=&quot;font-size: 30px&quot;&gt;container-2&lt;/font&gt;" style="text;html=1;strokeColor=none;fillColor=none;align=center;verticalAlign=middle;whiteSpace=wrap;rounded=0;" parent="NCXxPQ6cSu1F1KOrD2qf-11" vertex="1">
          <mxGeometry x="80" y="45" width="170" height="30" as="geometry" />
        </mxCell>
        <mxCell id="NCXxPQ6cSu1F1KOrD2qf-17" value="192.168.xxx" style="text;html=1;strokeColor=none;fillColor=none;align=center;verticalAlign=middle;whiteSpace=wrap;rounded=0;fontSize=23;" parent="NCXxPQ6cSu1F1KOrD2qf-11" vertex="1">
          <mxGeometry x="131" y="213" width="60" height="30" as="geometry" />
        </mxCell>
        <mxCell id="NCXxPQ6cSu1F1KOrD2qf-18" value="eth0" style="rounded=1;whiteSpace=wrap;html=1;fontSize=23;strokeColor=#000000;strokeWidth=4;gradientColor=#ffffff;" parent="NCXxPQ6cSu1F1KOrD2qf-11" vertex="1">
          <mxGeometry x="-60" y="170" width="120" height="60" as="geometry" />
        </mxCell>
        <mxCell id="NCXxPQ6cSu1F1KOrD2qf-19" value="&lt;b&gt;&lt;font style=&quot;font-size: 32px&quot;&gt;veth@xxx&lt;/font&gt;&lt;/b&gt;" style="text;html=1;strokeColor=none;fillColor=none;align=center;verticalAlign=middle;whiteSpace=wrap;rounded=0;fontSize=23;" parent="1" vertex="1">
          <mxGeometry x="540" y="570" width="60" height="30" as="geometry" />
        </mxCell>
        <mxCell id="VhXoRk6tJXzCMAHRvKZj-1" value="" style="sketch=0;aspect=fixed;html=1;points=[];align=center;image;fontSize=12;image=img/lib/mscae/Docker.svg;dashed=1;strokeColor=#000000;strokeWidth=4;gradientColor=#ffffff;" vertex="1" parent="1">
          <mxGeometry x="310" y="530" width="97.56" height="80" as="geometry" />
        </mxCell>
      </root>
    </mxGraphModel>
  </diagram>
</mxfile>
